<svg width="61" height="488" viewBox="0 0 61 488" fill="none" xmlns="http://www.w3.org/2000/svg">
<path fill-rule="evenodd" clip-rule="evenodd" d="M45.157 487.5L45.1434 480.237L45.0754 487.5H45.157Z" fill="#453048"/>
<path d="M45.0754 487.5L45.1434 480.237L49.6296 0.5H15.843V487.5H45.0754Z" fill="#453048"/>
<path d="M45.1434 480.237L45.157 487.5H60.5L60.3534 0.5H49.6296L45.1434 480.237Z" fill="#5D4966"/>
<path d="M15.843 0.5H0.5V487.5H15.843V0.5Z" fill="#5D4966"/>
<path d="M45.157 487.5L45.1434 480.237M45.157 487.5H45.0754M45.157 487.5H60.5L60.3534 0.5H49.6296M45.1434 480.237L45.0754 487.5M45.1434 480.237L49.6296 0.5M45.1434 480.237H45.157M45.0754 487.5H15.843M49.6296 0.5H15.843M15.843 0.5H0.5V487.5H15.843M15.843 0.5V487.5" stroke="#D7CDB7" stroke-linecap="round" stroke-linejoin="round"/>
</svg>
