<svg width="70" height="599" viewBox="0 0 70 599" fill="none" xmlns="http://www.w3.org/2000/svg">
<path d="M19.8752 597.767H11.7832H3.47418L1 2.06299H19.8752V597.767Z" fill="#7D6781"/>
<path fill-rule="evenodd" clip-rule="evenodd" d="M68.1779 2.59448V597.767H51.8752L54.7698 2.59448C54.7686 2.56033 54.7673 2.52618 54.7659 2.49203L54.764 2.44687L68.1779 2.59448Z" fill="#7D6781"/>
<path d="M19.8752 2.06299L54.7698 2.59448L51.8752 597.767H19.8752V2.06299Z" fill="#7D6781"/>
<path d="M19.8752 2.06299L54.7698 2.59448M19.8752 2.06299H1L3.47418 597.767H11.7832H19.8752M19.8752 2.06299V597.767M19.8752 2.06299L54.764 2.44687M54.7698 2.59448L54.7681 2.54889L54.7659 2.49203M54.7698 2.59448L51.8752 597.767M54.7698 2.59448C54.7686 2.56033 54.7673 2.52618 54.7659 2.49203M54.7659 2.49203L54.764 2.44687M54.764 2.44687L68.1779 2.59448M68.1779 2.59448V1M68.1779 2.59448V597.767H51.8752M19.8752 597.767H51.8752" stroke="#BEB397" stroke-width="2" stroke-linecap="round" stroke-linejoin="round"/>
</svg>
