<svg width="1544" height="488" viewBox="0 0 1544 488" fill="none" xmlns="http://www.w3.org/2000/svg">
<g filter="url(#filter0_d_264_105)">
<path d="M1219.42 111.401C1207.41 120.179 1215.74 132.296 1223.6 127.315L1228.16 125.428C1235.56 123.059 1236.48 146.265 1216.28 146.205C1196.09 146.145 1195.41 131.814 1197.34 120.844C1199.27 109.874 1209.16 89.1592 1240.49 92.662C1266.39 95.557 1279.9 119.537 1281.24 131.423C1282.58 143.31 1282.43 156.473 1265.7 173.74C1253.72 186.104 1211.92 198.378 1188.6 198.309C1165.29 198.239 1147.57 198.128 1125.84 190.381C1095.16 179.44 1047.58 145.377 1047.58 145.377C1047.58 145.377 991.455 106.347 963.65 85.482C935.846 64.6169 897.283 45.9528 854.298 48.5255C820.391 50.5549 772.108 72.0188 772.108 72.0188C772.108 72.0188 816.952 53.8524 850.044 54.6589C863.404 54.9845 908.1 54.6589 948.142 83.1401C988.183 111.621 1074.77 184.313 1127.46 203.068C1165.92 216.758 1204.58 215.688 1236.16 206.715C1238.43 206.072 1240.65 205.388 1242.84 204.667C1251.95 201.662 1260.39 197.997 1267.95 193.855C1302.69 174.835 1307.67 118.058 1293.11 98.7306C1278.54 79.4029 1257.49 74.4639 1248.4 74.159C1244.16 73.685 1236.28 73.7389 1227.2 75.2835C1208.01 78.545 1183.48 88.4529 1176.6 114.071C1173.72 124.811 1174.45 133.382 1178.12 141.176C1179.55 144.215 1181.43 147.137 1183.72 150.022C1191.88 160.309 1208.55 161.805 1213.52 161.876C1242.47 162.292 1264.24 139.848 1257.78 119.95C1254.56 110.048 1245.12 107.882 1240.56 107.372C1240.56 107.372 1229.03 104.379 1219.42 111.401Z" fill="#5D4966"/>
<path fill-rule="evenodd" clip-rule="evenodd" d="M772.108 47.7173V72.0188C787.919 60.7475 804.624 52.9129 821.246 47.7173H772.108ZM935.052 47.7016C937.51 48.584 939.767 49.502 941.804 50.4394C957.336 57.5892 982.046 76.0655 1007.21 94.8798C1030.31 112.151 1053.79 129.707 1070.9 139.048C1106.64 158.563 1139.08 159.09 1159.6 152.234C1170.27 148.669 1177.7 141.585 1178.12 141.176C1174.45 133.382 1173.72 124.811 1176.6 114.071C1183.06 90.0301 1205.06 79.8246 1223.6 75.9636C1160.11 87.4097 1125.01 75.789 1075.48 47.7016H935.052Z" fill="#453048"/>
<path fill-rule="evenodd" clip-rule="evenodd" d="M1322.9 133.774C1325.01 135.02 1327.09 136.141 1329.08 137.145C1337.74 141.526 1345.81 143.673 1350.34 144.179C1359.69 146.157 1381.16 146.976 1400.94 127.575C1401.95 126.582 1404.94 123.986 1407.44 122.613C1407.44 158.056 1454.2 244.627 1454.2 244.627C1454.2 244.627 1483.61 300.527 1468.14 321.566C1456.85 336.927 1445.9 336.919 1435.68 335.734C1425.47 334.549 1402.76 322.365 1395.33 298.919C1386.34 270.551 1401.79 261.556 1410.61 259.782C1419.43 258.008 1431.57 258.587 1435.52 276.879C1439.47 295.17 1424.96 296.315 1417.79 288.931C1416.46 287.561 1415.32 286.373 1414.35 285.349C1410.05 280.849 1408.77 279.504 1406.96 279.799C1404.75 280.16 1407.67 298.95 1407.67 298.95C1408.98 303.079 1412.62 311.624 1421.54 314.514C1439.46 320.321 1454.06 300.556 1448.12 274.345C1447.85 273.154 1447.34 271.223 1446.54 268.889C1446.54 268.889 1445.59 249.359 1417.79 233.985C1407.37 228.223 1394.37 224.78 1381.37 221.339C1359.7 215.598 1338.04 209.862 1328.42 193.373C1321.37 182.473 1308.64 148.12 1322.9 133.774Z" fill="#453048"/>
<path d="M1406.96 279.799C1404.75 280.16 1407.67 298.95 1407.67 298.95C1408.98 303.079 1412.62 311.624 1421.54 314.514C1439.46 320.321 1454.06 300.556 1448.12 274.345C1447.85 273.154 1447.34 271.223 1446.54 268.889C1444.33 262.398 1437.86 252.534 1432.43 247.383C1424.31 239.705 1414.97 237.684 1403.23 241.347C1373.56 250.609 1375.13 292.801 1382.22 315.164C1383.4 317.931 1384.56 320.756 1385.69 323.64C1395.19 342.485 1415.13 358.405 1434.16 361.623C1455.97 365.315 1477.37 360.358 1487.96 339.998C1493.26 329.817 1495.91 308.423 1490.61 288.145C1480.77 250.5 1397.23 144.338 1418.45 112.689L1422.28 107.168C1420.02 110.094 1416.45 114.178 1416.45 114.178C1416.45 114.178 1407.94 122.338 1407.44 122.613C1407.44 158.056 1454.2 244.627 1454.2 244.627C1454.2 244.627 1483.61 300.527 1468.14 321.566C1456.85 336.927 1445.9 336.919 1435.68 335.734C1425.47 334.549 1402.76 322.365 1395.33 298.919C1386.34 270.551 1401.79 261.556 1410.61 259.782C1419.43 258.008 1431.57 258.587 1435.52 276.879C1439.47 295.17 1424.96 296.315 1417.79 288.931C1410.61 281.547 1409.18 279.437 1406.96 279.799Z" fill="#5D4966"/>
<path fill-rule="evenodd" clip-rule="evenodd" d="M1279.89 47.7016H1292.86C1290.07 49.162 1287.28 50.65 1284.49 52.1344C1274.74 57.3329 1265.06 62.4909 1255.6 66.2623C1254.69 66.6248 1253.81 66.9759 1252.96 67.3166L1252.89 67.346L1252.87 67.3543C1244.69 70.6384 1238.91 72.9592 1227.2 75.2835C1226.01 75.4843 1224.81 75.7103 1223.6 75.9636C1160.11 87.4097 1125.01 75.789 1075.48 47.7016H1090.79C1134.16 70.0598 1169.17 75.8012 1227.13 65.3511C1242.73 62.5388 1249.64 60.6043 1260.23 56.3848C1266.91 53.7248 1273.45 50.7161 1279.89 47.7016Z" fill="#5D4966"/>
<path d="M1339.48 97.8056C1330.88 83.5602 1344.31 70.3799 1350.25 78.734L1354.11 82.3125C1360.65 87.2384 1371.11 58.0829 1350.56 52.9012C1330.02 47.7196 1323.45 65.6979 1320.92 80.0964C1318.38 94.4949 1326.03 126.889 1359.31 130.609C1386.81 133.683 1404.26 103.242 1410.5 88.5338C1415.28 77.2554 1419.9 64.6913 1417 47.7016H1378.39C1389.39 61.5991 1391.6 81.5493 1381.96 96.9607C1374.63 108.667 1364.15 108.953 1359.31 108.411C1359.31 108.411 1346.36 109.202 1339.48 97.8056Z" fill="#453048"/>
<path d="M1310.92 47.7016C1302.97 56.9482 1297.75 68.0323 1296.18 83.2766C1294.07 103.814 1297.42 110.5 1307.01 121.211C1311.61 126.349 1317.34 130.493 1322.9 133.774C1325.01 135.02 1327.09 136.141 1329.08 137.145C1337.74 141.526 1345.81 143.673 1350.34 144.179C1359.69 146.157 1381.16 146.976 1400.94 127.575C1401.95 126.582 1404.94 123.986 1407.44 122.613C1407.94 122.338 1416.45 114.178 1416.45 114.178C1416.45 114.178 1420.02 110.094 1422.28 107.168L1423.95 104.75C1436.17 85.1794 1440.77 65.7882 1438.65 47.7016H1417C1419.9 64.6913 1415.28 77.2554 1410.5 88.5338C1404.26 103.242 1386.81 133.683 1359.31 130.609C1326.03 126.889 1318.38 94.4949 1320.92 80.0964C1323.45 65.6979 1330.02 47.7196 1350.56 52.9012C1371.11 58.0829 1360.65 87.2384 1354.11 82.3125L1350.25 78.734C1344.31 70.3799 1330.88 83.5602 1339.48 97.8056C1346.36 109.202 1359.31 108.411 1359.31 108.411C1364.15 108.953 1374.63 108.667 1381.96 96.9607C1391.6 81.5493 1389.39 61.5991 1378.39 47.7016H1310.92Z" fill="#5D4966"/>
<path d="M1227.13 65.3511C1242.73 62.5388 1249.64 60.6043 1260.23 56.3848C1266.91 53.7248 1273.45 50.7161 1279.89 47.7016H1090.79C1134.16 70.0598 1169.17 75.8012 1227.13 65.3511Z" fill="#453048"/>
<path d="M1183.72 150.022C1181.43 147.137 1179.55 144.215 1178.12 141.176C1177.7 141.585 1170.27 148.669 1159.6 152.234C1139.08 159.09 1106.64 158.563 1070.9 139.048C1053.79 129.707 1030.31 112.151 1007.21 94.8798C982.046 76.0655 957.336 57.5892 941.804 50.4394C939.767 49.502 937.51 48.584 935.052 47.7016H916.601C926.178 50.1578 934.93 53.535 942.466 57.8231C960.539 68.1083 977.339 81.1865 998.737 96.853C1026.72 117.339 1053.07 140.102 1080.19 153.288C1107.31 166.474 1142.39 167.001 1162.92 160.145C1173.9 156.474 1183.72 150.022 1183.72 150.022Z" fill="#5D4966"/>
<path d="M1223.6 127.315C1215.74 132.296 1207.41 120.179 1219.42 111.401C1229.03 104.379 1240.56 107.372 1240.56 107.372C1245.12 107.882 1254.56 110.048 1257.78 119.95C1264.24 139.848 1242.47 162.292 1213.52 161.876C1208.55 161.805 1191.88 160.309 1183.72 150.022C1183.72 150.022 1173.9 156.474 1162.92 160.145C1142.39 167.001 1107.31 166.474 1080.19 153.288C1053.07 140.102 1026.72 117.339 998.737 96.853C977.339 81.1865 960.539 68.1083 942.466 57.8231C934.93 53.535 926.178 50.1578 916.601 47.7016L830.597 47.7173C809.447 52.4115 789.065 60.4898 772.108 72.0188C772.108 72.0188 820.391 50.5549 854.298 48.5255C897.283 45.9528 935.846 64.6169 963.65 85.482C991.455 106.347 1047.58 145.377 1047.58 145.377C1047.58 145.377 1095.16 179.44 1125.84 190.381C1147.57 198.128 1165.29 198.239 1188.6 198.309C1211.92 198.378 1253.72 186.104 1265.7 173.74C1282.43 156.473 1282.58 143.31 1281.24 131.423C1279.9 119.537 1266.39 95.557 1240.49 92.662C1209.16 89.1592 1199.27 109.874 1197.34 120.844C1195.41 131.814 1196.09 146.145 1216.28 146.205C1236.48 146.265 1235.56 123.059 1228.16 125.428L1223.6 127.315Z" fill="#453048"/>
<path d="M772.108 72.0188C789.065 60.4898 809.447 52.4115 830.597 47.7173H821.246C804.624 52.9129 787.919 60.7475 772.108 72.0188Z" fill="#5D4966"/>
<path d="M1254.93 288.838C1258.24 302.551 1248.31 307.298 1235.74 296.222C1225.67 287.361 1227.79 274.597 1227.79 274.597C1227.79 274.597 1229.17 259.277 1241.03 254.028C1264.86 243.479 1295.78 262.341 1299.29 293.057C1299.78 297.378 1300.18 310.192 1293.9 320.484C1293.9 320.484 1312.26 345.273 1317.83 355.294C1323.39 365.315 1395.33 467.109 1448.12 414.643C1410.61 438.216 1385 379.805 1374.76 345.8C1366.92 319.751 1359.36 303.785 1349.6 286.201C1332.6 255.583 1309.88 237.677 1299.29 231.875C1288.7 226.074 1276.78 218.117 1249.64 224.446C1222.5 230.775 1209.92 251.918 1209.92 279.872C1209.92 313.693 1235.74 320.484 1249.64 320.484C1263.54 320.484 1284.06 313.1 1279.43 293.057C1274.79 273.015 1251.62 275.125 1254.93 288.838Z" fill="#453048"/>
<path d="M1235.74 296.222C1248.31 307.298 1258.24 302.551 1254.93 288.838C1251.62 275.125 1274.79 273.015 1279.43 293.057C1284.06 313.1 1263.54 320.484 1249.64 320.484C1235.74 320.484 1209.92 313.693 1209.92 279.872C1209.92 251.918 1222.5 230.775 1249.64 224.446C1276.78 218.117 1288.7 226.074 1299.29 231.875C1309.88 237.677 1332.6 255.583 1349.6 286.201C1359.36 303.785 1366.92 319.751 1374.76 345.8C1385 379.805 1410.61 438.216 1448.12 414.643C1416.45 430.191 1400.49 361.234 1385.69 323.64C1384.3 320.867 1383.13 318.032 1382.22 315.164C1365.5 276.01 1344.47 248.558 1330.18 231.875C1309.23 207.417 1275.36 196.104 1242.84 204.667C1240.65 205.388 1238.43 206.072 1236.16 206.715C1226.81 209.998 1217.65 214.99 1209.03 221.854C1188.57 238.158 1184.54 262.818 1185.42 272.488C1185.42 286.728 1196.68 337.362 1245 341.054C1262.45 342.386 1274.74 338.21 1285.61 329.45C1286.65 328.613 1287.68 327.733 1288.7 326.813C1290.7 325 1292.34 322.969 1293.69 320.821C1293.76 320.709 1293.83 320.597 1293.9 320.484C1300.18 310.192 1299.78 297.378 1299.29 293.057C1295.78 262.341 1264.86 243.479 1241.03 254.028C1229.17 259.277 1227.79 274.597 1227.79 274.597C1227.79 274.597 1225.67 287.361 1235.74 296.222Z" fill="#5D4966"/>
<path d="M1288.7 326.813C1287.68 327.733 1286.65 328.613 1285.61 329.45C1303.92 355.294 1395.33 480.347 1448.12 414.643C1395.33 467.109 1323.39 365.315 1317.83 355.294C1312.26 345.273 1293.9 320.484 1293.9 320.484C1293.83 320.597 1293.76 320.709 1293.69 320.821C1292.34 322.969 1290.7 325 1288.7 326.813Z" fill="#5D4966"/>
<path d="M324.576 111.401C336.585 120.179 328.256 132.296 320.403 127.315L315.835 125.428C308.442 123.059 307.516 146.265 327.715 146.205C347.915 146.145 348.589 131.814 346.657 120.844C344.725 109.874 334.843 89.1592 303.508 92.662C277.61 95.557 264.097 119.537 262.759 131.423C261.421 143.31 261.571 156.473 278.302 173.74C290.281 186.104 332.079 198.378 355.397 198.309C378.715 198.239 396.431 198.128 418.157 190.381C448.838 179.44 496.423 145.377 496.423 145.377C496.423 145.377 552.545 106.347 580.35 85.482C608.154 64.6169 646.717 45.9528 689.702 48.5255C723.609 50.5549 771.893 72.0188 771.893 72.0188C771.893 72.0188 727.048 53.8524 693.956 54.6589C680.596 54.9845 635.9 54.6589 595.858 83.1401C555.817 111.621 469.234 184.313 416.543 203.068C378.083 216.758 339.424 215.688 307.837 206.715C305.574 206.072 303.346 205.388 301.158 204.667C292.047 201.662 283.613 197.997 276.047 193.855C241.306 174.835 236.327 118.058 250.891 98.7306C265.455 79.4029 286.514 74.4639 295.595 74.159C299.835 73.685 307.72 73.7389 316.804 75.2835C317.928 75.4746 319.071 75.6886 320.227 75.9271C320.285 75.9392 320.344 75.9514 320.403 75.9636C338.941 79.8246 360.944 90.0301 367.399 114.071C370.283 124.811 369.552 133.382 365.878 141.176C364.445 144.215 362.565 147.137 360.278 150.022C352.124 160.309 335.446 161.805 330.475 161.876C301.53 162.292 279.759 139.848 286.22 119.95C289.436 110.048 298.877 107.882 303.437 107.372C303.437 107.372 314.968 104.379 324.576 111.401Z" fill="#5D4966"/>
<path fill-rule="evenodd" clip-rule="evenodd" d="M771.893 47.7173V72.0188C756.081 60.7475 739.376 52.9129 722.754 47.7173H771.893ZM608.948 47.7016C606.49 48.584 604.233 49.502 602.196 50.4394C586.664 57.5892 561.954 76.0655 536.792 94.8798C513.694 112.151 490.214 129.707 473.104 139.048C437.356 158.563 404.917 159.09 384.395 152.234C373.727 148.669 366.301 141.585 365.878 141.176C369.552 133.382 370.283 124.811 367.399 114.071C360.944 90.0301 338.941 79.8246 320.403 75.9636C383.889 87.4097 418.987 75.789 468.518 47.7016H608.948Z" fill="#453048"/>
<path d="M137.036 279.799C139.253 280.16 136.328 298.95 136.328 298.95C135.02 303.079 131.381 311.624 122.462 314.514C104.541 320.321 89.9399 300.556 95.8798 274.345C96.1496 273.154 96.661 271.223 97.4561 268.889C99.6672 262.398 106.141 252.534 111.57 247.383C119.692 239.705 129.034 237.684 140.769 241.347C170.444 250.609 168.867 292.801 161.781 315.164C160.6 317.931 159.44 320.756 158.305 323.64C148.809 342.485 128.866 358.405 109.845 361.623C88.0258 365.315 66.6301 360.358 56.0383 339.998C50.7413 329.817 48.087 308.423 53.39 288.145C63.2341 250.5 146.769 144.338 125.552 112.689L121.724 107.168C123.982 110.094 127.553 114.178 127.553 114.178C127.553 114.178 136.059 122.338 136.56 122.613C136.56 158.056 89.8014 244.627 89.8014 244.627C89.8014 244.627 60.3901 300.527 75.8586 321.566C87.1531 336.927 98.0975 336.919 108.316 335.734C118.535 334.549 141.239 322.365 148.669 298.919C157.657 270.551 142.208 261.556 133.389 259.782C124.57 258.008 112.431 258.587 108.478 276.879C104.526 295.17 119.036 296.315 126.212 288.931C127.543 287.562 128.677 286.374 129.654 285.349C133.946 280.849 135.229 279.504 137.036 279.799Z" fill="#5D4966"/>
<path fill-rule="evenodd" clip-rule="evenodd" d="M316.804 75.2835C317.928 75.4746 319.071 75.6886 320.227 75.9271L320.403 75.9636C383.889 87.4097 418.987 75.789 468.518 47.7016H453.214C409.844 70.0598 374.832 75.8012 316.87 65.3511C301.272 62.5388 294.362 60.6043 283.77 56.3848C277.092 53.7248 270.554 50.7161 264.109 47.7016H251.135C252.76 48.5678 254.659 49.6812 256.863 50.9737C267.887 57.4377 286.55 68.3804 316.804 75.2835Z" fill="#5D4966"/>
<path d="M204.519 97.8056C213.121 83.5602 199.689 70.3799 193.753 78.734L189.886 82.3125C183.347 87.2384 172.889 58.0829 193.437 52.9012C213.984 47.7196 220.546 65.6979 223.081 80.0964C225.617 94.4949 217.967 126.889 184.694 130.609C157.194 133.683 139.735 103.242 133.502 88.5338C128.722 77.2554 124.096 64.6913 126.997 47.7016H165.608C154.614 61.5991 152.396 81.5493 162.043 96.9607C169.371 108.667 179.852 108.953 184.694 108.411C184.694 108.411 197.637 109.202 204.519 97.8056Z" fill="#453048"/>
<path d="M233.078 47.7016C241.031 56.9482 246.251 68.0323 247.817 83.2766C249.926 103.814 246.576 110.5 236.99 121.211C232.391 126.349 226.655 130.493 221.1 133.774C218.99 135.02 216.907 136.141 214.921 137.145C206.258 141.526 198.191 143.673 193.658 144.179C184.306 146.157 162.836 146.976 143.064 127.575C142.053 126.582 139.061 123.986 136.56 122.613C136.059 122.338 127.553 114.178 127.553 114.178C127.553 114.178 123.982 110.094 121.724 107.168L120.048 104.75C107.829 85.1794 103.234 65.7882 105.347 47.7016H126.997C124.096 64.6913 128.722 77.2554 133.502 88.5338C139.735 103.242 157.194 133.683 184.694 130.609C217.967 126.889 225.617 94.4949 223.081 80.0964C220.546 65.6979 213.984 47.7196 193.437 52.9012C172.889 58.0829 183.347 87.2384 189.886 82.3125L193.753 78.734C199.689 70.3799 213.121 83.5602 204.519 97.8056C197.637 109.202 184.694 108.411 184.694 108.411C179.852 108.953 169.371 108.667 162.043 96.9607C152.396 81.5493 154.614 61.5991 165.608 47.7016H233.078Z" fill="#5D4966"/>
<path d="M316.87 65.3511C301.272 62.5388 294.362 60.6043 283.77 56.3848C277.092 53.7248 270.554 50.7161 264.109 47.7016H453.214C409.844 70.0598 374.832 75.8012 316.87 65.3511Z" fill="#453048"/>
<path d="M360.278 150.022C362.565 147.137 364.445 144.215 365.878 141.176C366.301 141.585 373.727 148.669 384.395 152.234C404.917 159.09 437.356 158.563 473.104 139.048C490.214 129.707 513.694 112.151 536.792 94.8798C561.954 76.0655 586.664 57.5892 602.196 50.4394C604.233 49.502 606.49 48.584 608.948 47.7016H627.399C617.822 50.1578 609.07 53.535 601.534 57.8231C583.461 68.1083 566.661 81.1865 545.263 96.853C517.283 117.339 490.933 140.102 463.813 153.288C436.694 166.474 401.607 167.001 381.085 160.145C370.097 156.474 360.278 150.022 360.278 150.022Z" fill="#5D4966"/>
<path d="M320.403 127.315C328.256 132.296 336.585 120.179 324.576 111.401C314.968 104.379 303.437 107.372 303.437 107.372C298.877 107.882 289.436 110.048 286.22 119.95C279.759 139.848 301.53 162.292 330.475 161.876C335.446 161.805 352.124 160.309 360.278 150.022C360.278 150.022 370.097 156.474 381.085 160.145C401.607 167.001 436.694 166.474 463.813 153.288C490.933 140.102 517.283 117.339 545.263 96.853C566.661 81.1865 583.461 68.1083 601.534 57.8231C609.07 53.535 617.822 50.1578 627.399 47.7016L713.403 47.7173C734.553 52.4115 754.935 60.4898 771.893 72.0188C771.893 72.0188 723.609 50.5549 689.702 48.5255C646.717 45.9528 608.154 64.6169 580.35 85.482C552.545 106.347 496.423 145.377 496.423 145.377C496.423 145.377 448.838 179.44 418.157 190.381C396.431 198.128 378.715 198.239 355.397 198.309C332.079 198.378 290.281 186.104 278.302 173.74C261.571 156.473 261.421 143.31 262.759 131.423C264.097 119.537 277.61 95.557 303.508 92.662C334.843 89.1592 344.725 109.874 346.657 120.844C348.589 131.814 347.915 146.145 327.715 146.205C307.516 146.265 308.442 123.059 315.835 125.428L320.403 127.315Z" fill="#453048"/>
<path d="M771.893 72.0188C754.935 60.4898 734.553 52.4115 713.403 47.7173H722.754C739.376 52.9129 756.081 60.7475 771.893 72.0188Z" fill="#5D4966"/>
<path d="M289.065 288.838C285.755 302.551 295.685 307.298 308.264 296.222C318.326 287.361 316.208 274.597 316.208 274.597C316.208 274.597 314.828 259.277 302.967 254.028C279.135 243.479 248.216 262.341 244.711 293.057C244.218 297.378 243.822 310.192 250.099 320.484C250.099 320.484 231.736 345.273 226.175 355.294C220.613 365.315 148.669 467.109 95.8798 414.643C133.389 438.216 159.004 379.805 169.242 345.8C177.085 319.751 184.635 303.785 194.398 286.201C211.397 255.583 234.119 237.677 244.711 231.875C255.303 226.074 267.219 218.117 294.362 224.446C321.504 230.775 334.082 251.918 334.082 279.872C334.082 313.693 308.264 320.484 294.362 320.484C280.459 320.484 259.937 313.1 264.571 293.057C269.205 273.015 292.376 275.125 289.065 288.838Z" fill="#453048"/>
<path d="M308.264 296.222C295.685 307.298 285.755 302.551 289.065 288.838C292.376 275.125 269.205 273.015 264.571 293.057C259.937 313.1 280.459 320.484 294.362 320.484C308.264 320.484 334.082 313.693 334.082 279.872C334.082 251.918 321.504 230.775 294.362 224.446C267.219 218.117 255.303 226.074 244.711 231.875C234.119 237.677 211.397 255.583 194.398 286.201C184.635 303.785 177.085 319.751 169.242 345.8C159.004 379.805 133.389 438.216 95.8798 414.643C127.553 430.191 143.512 361.234 158.305 323.64C159.702 320.867 160.873 318.032 161.781 315.164C178.504 276.01 199.526 248.558 213.818 231.875C234.772 207.417 268.637 196.104 301.158 204.667C303.346 205.388 305.574 206.072 307.837 206.715C317.191 209.998 326.35 214.99 334.966 221.854C355.43 238.158 359.459 262.818 358.576 272.488C358.576 286.728 347.322 337.362 298.996 341.054C281.552 342.386 269.258 338.21 258.385 329.45C257.346 328.613 256.319 327.733 255.303 326.813C253.3 325 251.655 322.969 250.307 320.821C250.237 320.709 250.168 320.597 250.099 320.484C243.822 310.192 244.218 297.378 244.711 293.057C248.216 262.341 279.135 243.479 302.967 254.028C314.828 259.277 316.208 274.597 316.208 274.597C316.208 274.597 318.326 287.361 308.264 296.222Z" fill="#5D4966"/>
<path d="M255.303 326.813C256.319 327.733 257.346 328.613 258.385 329.45C240.077 355.294 148.669 480.347 95.8798 414.643C148.669 467.109 220.613 365.315 226.175 355.294C231.736 345.273 250.099 320.484 250.099 320.484C250.168 320.597 250.237 320.709 250.307 320.821C251.655 322.969 253.3 325 255.303 326.813Z" fill="#5D4966"/>
<path fill-rule="evenodd" clip-rule="evenodd" d="M214.921 137.145C216.907 136.141 218.99 135.02 221.1 133.774C235.362 148.12 222.628 182.473 215.582 193.373C205.961 209.862 184.303 215.598 162.625 221.339C149.632 224.78 136.631 228.224 126.211 233.985C98.4067 249.359 97.4561 268.889 97.4561 268.889C96.661 271.223 96.1496 273.154 95.8798 274.345C89.9399 300.556 104.541 320.321 122.462 314.514C131.381 311.624 135.02 303.079 136.328 298.95C136.328 298.95 139.253 280.16 137.036 279.799C135.229 279.504 133.946 280.849 129.654 285.349C128.677 286.374 127.543 287.562 126.212 288.931C119.036 296.315 104.526 295.17 108.478 276.879C112.431 258.587 124.57 258.008 133.389 259.782C142.208 261.556 157.657 270.551 148.669 298.919C141.239 322.365 118.535 334.549 108.316 335.734C98.0975 336.919 87.1531 336.927 75.8586 321.566C60.3901 300.527 89.8014 244.627 89.8014 244.627C89.8014 244.627 136.56 158.056 136.56 122.613C139.061 123.986 142.053 126.582 143.064 127.575C162.836 146.976 184.306 146.157 193.658 144.179C198.191 143.673 206.258 141.526 214.921 137.145Z" fill="#453048"/>
<path d="M111.57 247.383C106.141 252.534 99.6672 262.398 97.4561 268.889C97.4561 268.889 98.4067 249.359 126.211 233.985C136.631 228.224 149.632 224.78 162.625 221.339C184.303 215.598 205.961 209.862 215.582 193.373C222.628 182.473 235.362 148.12 221.1 133.774C226.655 130.493 232.391 126.349 236.99 121.211C236.99 121.211 253.701 157.239 238.313 183.611C232.103 194.252 218.893 210.871 191.751 218.255C175.729 222.614 166.166 224.4 158.568 225.674C157.489 225.855 156.45 226.025 155.437 226.192L155.419 226.195C151.49 226.839 147.964 227.418 144.087 228.276C132.17 230.914 118.277 239.258 111.57 247.383Z" fill="#5D4966"/>
<path d="M1307.01 121.211C1311.61 126.349 1317.34 130.493 1322.9 133.774C1308.64 148.12 1321.37 182.473 1328.42 193.373C1338.04 209.862 1359.7 215.598 1381.37 221.339C1394.37 224.78 1407.37 228.223 1417.79 233.985C1445.59 249.359 1446.54 268.889 1446.54 268.889C1444.33 262.398 1437.86 252.534 1432.43 247.383C1425.72 239.258 1411.83 230.914 1399.91 228.276C1396.04 227.418 1392.51 226.84 1388.58 226.195C1380.43 224.858 1370.56 223.237 1352.25 218.255C1325.11 210.871 1311.9 194.252 1305.69 183.611C1290.3 157.239 1307.01 121.211 1307.01 121.211Z" fill="#5D4966"/>
<path d="M276.047 193.855C283.613 197.997 292.047 201.662 301.158 204.667C268.637 196.104 234.772 207.417 213.818 231.875C199.526 248.558 178.504 276.01 161.781 315.164C168.867 292.801 170.444 250.609 140.769 241.347C129.034 237.684 119.692 239.705 111.57 247.383C118.277 239.258 132.17 230.914 144.087 228.276C147.964 227.418 151.49 226.839 155.419 226.195L155.437 226.192C156.45 226.025 157.489 225.855 158.568 225.674C166.166 224.4 175.729 222.614 191.751 218.255C218.893 210.871 232.103 194.252 238.313 183.611C253.701 157.239 236.99 121.211 236.99 121.211C246.576 110.5 249.926 103.814 247.817 83.2766C246.251 68.0323 241.031 56.9482 233.078 47.7016H251.135C252.76 48.5678 254.659 49.6812 256.863 50.9737C267.887 57.4377 286.55 68.3804 316.804 75.2835C307.72 73.7389 299.835 73.685 295.595 74.159C286.514 74.4639 265.455 79.4029 250.891 98.7306C236.327 118.058 241.306 174.835 276.047 193.855Z" fill="#453048"/>
<path d="M1242.84 204.667C1251.95 201.662 1260.39 197.997 1267.95 193.855C1302.69 174.835 1307.67 118.058 1293.11 98.7306C1278.54 79.4029 1257.49 74.4639 1248.4 74.159C1244.16 73.685 1236.28 73.7389 1227.2 75.2835C1238.91 72.9592 1244.69 70.6384 1252.87 67.3543L1252.89 67.346L1252.96 67.3166C1253.81 66.9759 1254.69 66.6248 1255.6 66.2623C1265.06 62.4909 1274.74 57.3329 1284.49 52.1344C1287.28 50.65 1290.07 49.162 1292.86 47.7016H1310.92C1302.97 56.9482 1297.75 68.0323 1296.18 83.2766C1294.07 103.814 1297.42 110.5 1307.01 121.211C1307.01 121.211 1290.3 157.239 1305.69 183.611C1311.9 194.252 1325.11 210.871 1352.25 218.255C1370.56 223.237 1380.43 224.858 1388.58 226.195C1392.51 226.84 1396.04 227.418 1399.91 228.276C1411.83 230.914 1425.72 239.258 1432.43 247.383C1424.31 239.705 1414.97 237.684 1403.23 241.347C1373.56 250.609 1375.13 292.801 1382.22 315.164C1365.5 276.01 1344.47 248.558 1330.18 231.875C1309.23 207.417 1275.36 196.104 1242.84 204.667Z" fill="#453048"/>
<path d="M772.108 72.0188C772.108 72.0188 820.391 50.5549 854.298 48.5255C897.283 45.9528 935.846 64.6169 963.65 85.482C991.455 106.347 1047.58 145.377 1047.58 145.377C1047.58 145.377 1095.16 179.44 1125.84 190.381C1147.57 198.128 1165.29 198.239 1188.6 198.309C1211.92 198.378 1253.72 186.104 1265.7 173.74C1282.43 156.473 1282.58 143.31 1281.24 131.423C1279.9 119.537 1266.39 95.557 1240.49 92.662C1209.16 89.1592 1199.27 109.874 1197.34 120.844C1195.41 131.814 1196.09 146.145 1216.28 146.205C1236.48 146.265 1235.56 123.059 1228.16 125.428L1223.6 127.315C1215.74 132.296 1207.41 120.179 1219.42 111.401C1229.03 104.379 1240.56 107.372 1240.56 107.372C1245.12 107.882 1254.56 110.048 1257.78 119.95C1264.24 139.848 1242.47 162.292 1213.52 161.876C1208.55 161.805 1191.88 160.309 1183.72 150.022M772.108 72.0188C772.108 72.0188 816.952 53.8524 850.044 54.6589C863.404 54.9845 908.1 54.6589 948.142 83.1401C988.183 111.621 1074.77 184.313 1127.46 203.068C1165.92 216.758 1204.58 215.688 1236.16 206.715M772.108 72.0188V47.7173H821.246M772.108 72.0188C787.919 60.7475 804.624 52.9129 821.246 47.7173M772.108 72.0188C789.065 60.4898 809.447 52.4115 830.597 47.7173M1236.16 206.715C1238.43 206.072 1240.65 205.388 1242.84 204.667M1236.16 206.715C1226.81 209.998 1217.65 214.99 1209.03 221.854C1188.57 238.158 1184.54 262.818 1185.42 272.488C1185.42 286.728 1196.68 337.362 1245 341.054C1262.45 342.386 1274.74 338.21 1285.61 329.45M1236.16 206.715C1238.38 205.937 1240.61 205.255 1242.84 204.667M1242.84 204.667C1251.95 201.662 1260.39 197.997 1267.95 193.855C1302.69 174.835 1307.67 118.058 1293.11 98.7306C1278.54 79.4029 1257.49 74.4639 1248.4 74.159C1244.16 73.685 1236.28 73.7389 1227.2 75.2835M1242.84 204.667C1275.36 196.104 1309.23 207.417 1330.18 231.875C1344.47 248.558 1365.5 276.01 1382.22 315.164M1227.2 75.2835C1208.01 78.545 1183.48 88.4529 1176.6 114.071M1227.2 75.2835C1238.91 72.9592 1244.69 70.6384 1252.87 67.3543L1252.89 67.346M1227.2 75.2835C1226.01 75.4843 1224.81 75.7103 1223.6 75.9636M1227.2 75.2835C1226.05 75.5099 1224.86 75.7363 1223.6 75.9636M1176.6 114.071C1173.72 124.811 1174.45 133.382 1178.12 141.176M1176.6 114.071C1183.06 90.0301 1205.06 79.8246 1223.6 75.9636M1178.12 141.176C1179.55 144.215 1181.43 147.137 1183.72 150.022M1178.12 141.176C1177.7 141.585 1170.27 148.669 1159.6 152.234C1139.08 159.09 1106.64 158.563 1070.9 139.048M1178.12 141.176C1178.13 141.164 1178.14 141.157 1178.14 141.157M1183.72 150.022C1183.72 150.022 1173.9 156.474 1162.92 160.145C1142.39 167.001 1107.31 166.474 1080.19 153.288C1053.07 140.102 1026.72 117.339 998.737 96.853C977.339 81.1865 960.539 68.1083 942.466 57.8231C934.93 53.535 926.178 50.1578 916.601 47.7016M821.246 47.7173H830.597M935.052 47.7016C937.51 48.584 939.767 49.502 941.804 50.4394M935.052 47.7016H1075.48M935.052 47.7016H916.601M935.052 47.7016H1292.86M941.804 50.4394C957.336 57.5892 982.046 76.0655 1007.21 94.8798C1030.31 112.151 1053.79 129.707 1070.9 139.048M941.804 50.4394C971.594 64.1526 1035.15 119.533 1070.9 139.048M1223.6 75.9636C1160.11 87.4097 1125.01 75.789 1075.48 47.7016M1075.48 47.7016H1090.79M1075.48 47.7016H1292.86M1322.9 133.774C1325.01 135.02 1327.09 136.141 1329.08 137.145C1337.74 141.526 1345.81 143.673 1350.34 144.179C1359.69 146.157 1381.16 146.976 1400.94 127.575C1401.95 126.582 1404.94 123.986 1407.44 122.613M1322.9 133.774C1308.64 148.12 1321.37 182.473 1328.42 193.373C1338.04 209.862 1359.7 215.598 1381.37 221.339C1394.37 224.78 1407.37 228.223 1417.79 233.985C1445.59 249.359 1446.54 268.889 1446.54 268.889M1322.9 133.774C1317.34 130.493 1311.61 126.349 1307.01 121.211M1407.44 122.613C1407.44 158.056 1454.2 244.627 1454.2 244.627C1454.2 244.627 1483.61 300.527 1468.14 321.566C1456.85 336.927 1445.9 336.919 1435.68 335.734C1425.47 334.549 1402.76 322.365 1395.33 298.919C1386.34 270.551 1401.79 261.556 1410.61 259.782C1419.43 258.008 1431.57 258.587 1435.52 276.879C1439.47 295.17 1424.96 296.315 1417.79 288.931M1407.44 122.613C1407.94 122.338 1416.45 114.178 1416.45 114.178C1416.45 114.178 1420.02 110.094 1422.28 107.168M1417.79 288.931C1416.46 287.561 1415.32 286.373 1414.35 285.349C1410.05 280.849 1408.77 279.504 1406.96 279.799M1417.79 288.931C1410.61 281.547 1409.18 279.437 1406.96 279.799M1406.96 279.799C1404.75 280.16 1407.67 298.95 1407.67 298.95C1408.98 303.079 1412.62 311.624 1421.54 314.514C1439.46 320.321 1454.06 300.556 1448.12 274.345C1447.85 273.154 1447.34 271.223 1446.54 268.889M1446.54 268.889C1444.33 262.398 1437.86 252.534 1432.43 247.383M1432.43 247.383C1424.31 239.705 1414.97 237.684 1403.23 241.347C1373.56 250.609 1375.13 292.801 1382.22 315.164M1432.43 247.383C1425.72 239.258 1411.83 230.914 1399.91 228.276C1396.04 227.418 1392.51 226.84 1388.58 226.195C1380.43 224.858 1370.56 223.237 1352.25 218.255C1325.11 210.871 1311.9 194.252 1305.69 183.611C1290.3 157.239 1307.01 121.211 1307.01 121.211M1382.22 315.164C1383.4 317.931 1384.56 320.756 1385.69 323.64M1382.22 315.164C1383.13 318.032 1384.3 320.867 1385.69 323.64M1385.69 323.64C1395.19 342.485 1415.13 358.405 1434.16 361.623C1455.97 365.315 1477.37 360.358 1487.96 339.998C1493.26 329.817 1495.91 308.423 1490.61 288.145C1480.77 250.5 1397.23 144.338 1418.45 112.689L1422.28 107.168M1385.69 323.64C1400.49 361.234 1416.45 430.191 1448.12 414.643M1422.28 107.168L1423.95 104.75M1422.28 107.168C1423.06 106.146 1423.69 105.266 1423.95 104.75M1279.89 47.7016H1292.86M1279.89 47.7016C1273.45 50.7161 1266.91 53.7248 1260.23 56.3848C1249.64 60.6043 1242.73 62.5388 1227.13 65.3511C1169.17 75.8012 1134.16 70.0598 1090.79 47.7016M1279.89 47.7016H1090.79M1292.86 47.7016C1290.07 49.162 1287.28 50.65 1284.49 52.1344M1292.86 47.7016H1310.92M1284.49 52.1344C1274.74 57.3329 1265.06 62.4909 1255.6 66.2623M1284.49 52.1344L1284.49 52.1367L1284.49 52.1374M1284.49 52.1344C1284.49 52.1353 1284.49 52.1364 1284.49 52.1374M1255.6 66.2623C1254.69 66.6248 1253.81 66.9759 1252.96 67.3166M1255.6 66.2623C1265.06 62.4907 1274.73 57.3361 1284.49 52.1374M1252.96 67.3166L1252.89 67.346M1252.96 67.3166C1252.94 67.3259 1252.92 67.3352 1252.89 67.3446L1252.89 67.346M1252.89 67.346C1252.88 67.349 1252.88 67.3519 1252.87 67.3548M1417 47.7016C1419.9 64.6913 1415.28 77.2554 1410.5 88.5338C1404.26 103.242 1386.81 133.683 1359.31 130.609C1326.03 126.889 1318.38 94.4949 1320.92 80.0964C1323.45 65.6979 1330.02 47.7196 1350.56 52.9012C1371.11 58.0829 1360.65 87.2384 1354.11 82.3125L1350.25 78.734C1344.31 70.3799 1330.88 83.5602 1339.48 97.8056C1346.36 109.202 1359.31 108.411 1359.31 108.411C1364.15 108.953 1374.63 108.667 1381.96 96.9607C1391.6 81.5493 1389.39 61.5991 1378.39 47.7016M1417 47.7016H1378.39M1417 47.7016H1438.65C1440.77 65.7882 1436.17 85.1794 1423.95 104.75M1417 47.7016H1310.92M1378.39 47.7016H1310.92M1378.39 47.7016C1378.07 47.2958 1377.74 46.8952 1377.41 46.5M1310.92 47.7016C1302.97 56.9482 1297.75 68.0323 1296.18 83.2766C1294.07 103.814 1297.42 110.5 1307.01 121.211M916.601 47.7016L830.597 47.7173M1299.29 293.057C1295.78 262.341 1264.86 243.479 1241.03 254.028C1229.17 259.277 1227.79 274.597 1227.79 274.597C1227.79 274.597 1225.67 287.361 1235.74 296.222C1248.31 307.298 1258.24 302.551 1254.93 288.838C1251.62 275.125 1274.79 273.015 1279.43 293.057C1284.06 313.1 1263.54 320.484 1249.64 320.484C1235.74 320.484 1209.92 313.693 1209.92 279.872C1209.92 251.918 1222.5 230.775 1249.64 224.446C1276.78 218.117 1288.7 226.074 1299.29 231.875C1309.88 237.677 1332.6 255.583 1349.6 286.201C1359.36 303.785 1366.92 319.751 1374.76 345.8C1385 379.805 1410.61 438.216 1448.12 414.643M1299.29 293.057C1299.78 297.378 1300.18 310.192 1293.9 320.484M1299.29 293.057C1299.79 297.425 1300.19 310.474 1293.69 320.821M1293.9 320.484C1293.9 320.484 1312.26 345.273 1317.83 355.294C1323.39 365.315 1395.33 467.109 1448.12 414.643M1293.9 320.484C1293.83 320.597 1293.76 320.709 1293.69 320.821M1448.12 414.643C1395.33 480.347 1303.92 355.294 1285.61 329.45M1285.61 329.45C1286.65 328.613 1287.68 327.733 1288.7 326.813C1290.7 325 1292.34 322.969 1293.69 320.821M771.893 72.0188C771.893 72.0188 723.609 50.5549 689.702 48.5255C646.717 45.9528 608.154 64.6169 580.35 85.482C552.545 106.347 496.423 145.377 496.423 145.377C496.423 145.377 448.838 179.44 418.157 190.381C396.431 198.128 378.715 198.239 355.397 198.309C332.079 198.378 290.281 186.104 278.302 173.74C261.571 156.473 261.421 143.31 262.759 131.423C264.097 119.537 277.61 95.557 303.508 92.662C334.843 89.1592 344.725 109.874 346.657 120.844C348.589 131.814 347.915 146.145 327.715 146.205C307.516 146.265 308.442 123.059 315.835 125.428L320.403 127.315C328.256 132.296 336.585 120.179 324.576 111.401C314.968 104.379 303.437 107.372 303.437 107.372C298.877 107.882 289.436 110.048 286.22 119.95C279.759 139.848 301.53 162.292 330.475 161.876C335.446 161.805 352.124 160.309 360.278 150.022M771.893 72.0188C771.893 72.0188 727.048 53.8524 693.956 54.6589C680.596 54.9845 635.9 54.6589 595.858 83.1401C555.817 111.621 469.234 184.313 416.543 203.068C378.083 216.758 339.424 215.688 307.837 206.715M771.893 72.0188V47.7173H722.754M771.893 72.0188C756.081 60.7475 739.376 52.9129 722.754 47.7173M771.893 72.0188C754.935 60.4898 734.553 52.4115 713.403 47.7173M307.837 206.715C305.574 206.072 303.346 205.388 301.158 204.667M307.837 206.715C317.191 209.998 326.35 214.99 334.966 221.854C355.43 238.158 359.459 262.818 358.576 272.488C358.576 286.728 347.322 337.362 298.996 341.054C281.552 342.386 269.258 338.21 258.385 329.45M307.837 206.715C305.62 205.937 303.392 205.255 301.158 204.667M301.158 204.667C292.047 201.662 283.613 197.997 276.047 193.855C241.306 174.835 236.327 118.058 250.891 98.7306C265.455 79.4029 286.514 74.4639 295.595 74.159C299.835 73.685 307.72 73.7389 316.804 75.2835M301.158 204.667C268.637 196.104 234.772 207.417 213.818 231.875C199.526 248.558 178.504 276.01 161.781 315.164M316.804 75.2835C317.928 75.4746 319.071 75.6886 320.227 75.9271M316.804 75.2835C286.55 68.3804 267.887 57.4377 256.863 50.9737C254.659 49.6812 252.76 48.5678 251.135 47.7016M316.804 75.2835C317.892 75.4993 319.031 75.7105 320.227 75.9271M320.227 75.9271C320.285 75.9392 320.344 75.9514 320.403 75.9636M320.227 75.9271L320.403 75.9636M320.227 75.9271C320.286 75.9378 320.344 75.953 320.403 75.9636M320.403 75.9636C338.941 79.8246 360.944 90.0301 367.399 114.071C370.283 124.811 369.552 133.382 365.878 141.176M320.403 75.9636C383.889 87.4097 418.987 75.789 468.518 47.7016M365.878 141.176C364.445 144.215 362.565 147.137 360.278 150.022M365.878 141.176C366.301 141.585 373.727 148.669 384.395 152.234C404.917 159.09 437.356 158.563 473.104 139.048M365.878 141.176C365.865 141.164 365.859 141.157 365.859 141.157M360.278 150.022C360.278 150.022 370.097 156.474 381.085 160.145C401.607 167.001 436.694 166.474 463.813 153.288C490.933 140.102 517.283 117.339 545.263 96.853C566.661 81.1865 583.461 68.1083 601.534 57.8231C609.07 53.535 617.822 50.1578 627.399 47.7016M722.754 47.7173H713.403M608.948 47.7016C606.49 48.584 604.233 49.502 602.196 50.4394M608.948 47.7016H468.518M608.948 47.7016H627.399M602.196 50.4394C586.664 57.5892 561.954 76.0655 536.792 94.8798C513.694 112.151 490.214 129.707 473.104 139.048M602.196 50.4394C572.406 64.1526 508.853 119.533 473.104 139.048M468.518 47.7016H453.214M97.4561 268.889C96.661 271.223 96.1496 273.154 95.8798 274.345C89.9399 300.556 104.541 320.321 122.462 314.514C131.381 311.624 135.02 303.079 136.328 298.95C136.328 298.95 139.253 280.16 137.036 279.799C135.229 279.504 133.946 280.849 129.654 285.349C128.677 286.374 127.543 287.562 126.212 288.931C119.036 296.315 104.526 295.17 108.478 276.879C112.431 258.587 124.57 258.008 133.389 259.782C142.208 261.556 157.657 270.551 148.669 298.919C141.239 322.365 118.535 334.549 108.316 335.734C98.0975 336.919 87.1531 336.927 75.8586 321.566C60.3901 300.527 89.8014 244.627 89.8014 244.627C89.8014 244.627 136.56 158.056 136.56 122.613M97.4561 268.889C99.6672 262.398 106.141 252.534 111.57 247.383M97.4561 268.889C97.4561 268.889 98.4067 249.359 126.211 233.985C136.631 228.224 149.632 224.78 162.625 221.339C184.303 215.598 205.961 209.862 215.582 193.373C222.628 182.473 235.362 148.12 221.1 133.774M111.57 247.383C119.692 239.705 129.034 237.684 140.769 241.347C170.444 250.609 168.867 292.801 161.781 315.164M111.57 247.383C118.277 239.258 132.17 230.914 144.087 228.276C147.964 227.418 151.49 226.839 155.419 226.195L155.437 226.192C156.45 226.025 157.489 225.855 158.568 225.674C166.166 224.4 175.729 222.614 191.751 218.255C218.893 210.871 232.103 194.252 238.313 183.611C253.701 157.239 236.99 121.211 236.99 121.211M161.781 315.164C160.6 317.931 159.44 320.756 158.305 323.64M161.781 315.164C160.873 318.032 159.702 320.867 158.305 323.64M158.305 323.64C148.809 342.485 128.866 358.405 109.845 361.623C88.0258 365.315 66.6301 360.358 56.0383 339.998C50.7413 329.817 48.087 308.423 53.39 288.145C63.2341 250.5 146.769 144.338 125.552 112.689L121.724 107.168M158.305 323.64C143.512 361.234 127.553 430.191 95.8798 414.643M121.724 107.168C123.982 110.094 127.553 114.178 127.553 114.178C127.553 114.178 136.059 122.338 136.56 122.613M121.724 107.168L120.048 104.75M121.724 107.168C120.936 106.146 120.308 105.266 120.048 104.75M136.56 122.613C139.061 123.986 142.053 126.582 143.064 127.575C162.836 146.976 184.306 146.157 193.658 144.179C198.191 143.673 206.258 141.526 214.921 137.145C216.907 136.141 218.99 135.02 221.1 133.774M453.214 47.7016C409.844 70.0598 374.832 75.8012 316.87 65.3511C301.272 62.5388 294.362 60.6043 283.77 56.3848C277.092 53.7248 270.554 50.7161 264.109 47.7016M453.214 47.7016H264.109M264.109 47.7016H251.135M251.135 47.7016H233.078M126.997 47.7016C124.096 64.6913 128.722 77.2554 133.502 88.5338C139.735 103.242 157.194 133.683 184.694 130.609C217.967 126.889 225.617 94.4949 223.081 80.0964C220.546 65.6979 213.984 47.7196 193.437 52.9012C172.889 58.0829 183.347 87.2384 189.886 82.3125L193.753 78.734C199.689 70.3799 213.121 83.5602 204.519 97.8056C197.637 109.202 184.694 108.411 184.694 108.411C179.852 108.953 169.371 108.667 162.043 96.9607C152.396 81.5493 154.614 61.5991 165.608 47.7016M126.997 47.7016H165.608M126.997 47.7016H105.347C103.234 65.7882 107.829 85.1794 120.048 104.75M126.997 47.7016H233.078M165.608 47.7016H233.078M165.608 47.7016C165.929 47.2958 166.258 46.8952 166.594 46.5M233.078 47.7016C241.031 56.9482 246.251 68.0323 247.817 83.2766C249.926 103.814 246.576 110.5 236.99 121.211M236.99 121.211C232.391 126.349 226.655 130.493 221.1 133.774M627.399 47.7016L713.403 47.7173M244.711 293.057C248.216 262.341 279.135 243.479 302.967 254.028C314.828 259.277 316.208 274.597 316.208 274.597C316.208 274.597 318.326 287.361 308.264 296.222C295.685 307.298 285.755 302.551 289.065 288.838C292.376 275.125 269.205 273.015 264.571 293.057C259.937 313.1 280.459 320.484 294.362 320.484C308.264 320.484 334.082 313.693 334.082 279.872C334.082 251.918 321.504 230.775 294.362 224.446C267.219 218.117 255.303 226.074 244.711 231.875C234.119 237.677 211.397 255.583 194.398 286.201C184.635 303.785 177.085 319.751 169.242 345.8C159.004 379.805 133.389 438.216 95.8798 414.643M244.711 293.057C244.218 297.378 243.822 310.192 250.099 320.484M244.711 293.057C244.212 297.425 243.813 310.474 250.307 320.821M250.099 320.484C250.099 320.484 231.736 345.273 226.175 355.294C220.613 365.315 148.669 467.109 95.8798 414.643M250.099 320.484C250.168 320.597 250.237 320.709 250.307 320.821M95.8798 414.643C148.669 480.347 240.077 355.294 258.385 329.45M258.385 329.45C257.346 328.613 256.319 327.733 255.303 326.813C253.3 325 251.655 322.969 250.307 320.821" stroke="#D7CDB7" stroke-linecap="round" stroke-linejoin="round"/>
</g>
<defs>
<filter id="filter0_d_264_105" x="0" y="0" width="1544" height="488" filterUnits="userSpaceOnUse" color-interpolation-filters="sRGB">
<feFlood flood-opacity="0" result="BackgroundImageFix"/>
<feColorMatrix in="SourceAlpha" type="matrix" values="0 0 0 0 0 0 0 0 0 0 0 0 0 0 0 0 0 0 127 0" result="hardAlpha"/>
<feOffset dy="4"/>
<feGaussianBlur stdDeviation="25"/>
<feComposite in2="hardAlpha" operator="out"/>
<feColorMatrix type="matrix" values="0 0 0 0 0.0545265 0 0 0 0 0.0636892 0 0 0 0 0.146154 0 0 0 0.45 0"/>
<feBlend mode="normal" in2="BackgroundImageFix" result="effect1_dropShadow_264_105"/>
<feBlend mode="normal" in="SourceGraphic" in2="effect1_dropShadow_264_105" result="shape"/>
</filter>
</defs>
</svg>
