<svg width="185" height="1120" viewBox="0 0 185 1120" fill="none" xmlns="http://www.w3.org/2000/svg">
<path d="M49.595 1118.15C43.2223 1117.93 38.1531 1117.75 38.1531 1117.75C41.8824 1010.67 36.8177 914.898 29.6482 823.966C12.0482 600.743 -28.8538 418.134 37.6198 178.732C81.5824 20.4027 122.216 1.00028 122.216 1.00028L145.154 1.79928C145.154 1.79928 91.8107 42.3435 51.7768 188.668C0.682769 375.418 5.61036 435.957 40.1063 824.331C49.4799 995.573 46.809 947.326 49.595 1118.15Z" fill="#7D6781"/>
<path fill-rule="evenodd" clip-rule="evenodd" d="M183.073 3.12004C183.073 3.12004 139.703 59.5256 113.119 118.632C84.8609 181.459 64.0786 264.474 57.1897 333.878C42.681 480.05 62.3864 658.707 71.0315 825.408C79.6062 990.75 74.242 1119.01 74.242 1119.01L60.8211 1118.54C60.8211 1118.54 66.3715 990.079 55.2697 824.859C44.5748 665.696 22.3275 475.929 37.2281 333.182C44.9069 259.62 70.0212 170.704 98.0082 107.987C125.724 45.8782 166.114 2.52932 166.114 2.52932C183.073 3.12004 183.072 3.18419 183.073 3.12004Z" fill="#7D6781"/>
<path d="M49.595 1118.15C46.809 947.326 49.4799 995.573 40.1063 824.331C5.61036 435.957 0.682769 375.418 51.7768 188.668C91.8107 42.3435 145.154 1.79928 145.154 1.79928L166.114 2.52932C166.114 2.52932 125.724 45.8782 98.0082 107.987C70.0212 170.704 44.9069 259.62 37.2281 333.182C22.3275 475.929 44.5748 665.696 55.2697 824.859C66.3715 990.079 60.8211 1118.54 60.8211 1118.54C60.8211 1118.54 62.0285 1118.58 49.595 1118.15Z" fill="#7D6781"/>
<path d="M49.595 1118.15C43.2223 1117.93 38.1531 1117.75 38.1531 1117.75C41.8824 1010.67 36.8177 914.898 29.6482 823.966C12.0482 600.743 -28.8538 418.134 37.6198 178.732C81.5824 20.4027 122.216 1.00028 122.216 1.00028L145.154 1.79928M49.595 1118.15C62.0285 1118.58 60.8211 1118.54 60.8211 1118.54M49.595 1118.15C46.809 947.326 49.4799 995.573 40.1063 824.331C5.61036 435.957 0.682769 375.418 51.7768 188.668C91.8107 42.3435 145.154 1.79928 145.154 1.79928M145.154 1.79928L166.114 2.52932M183.073 3.12004C183.072 3.18419 183.073 3.12004 166.114 2.52932M183.073 3.12004L166.114 2.52932M183.073 3.12004C183.073 3.12004 139.703 59.5256 113.119 118.632C84.8609 181.459 64.0786 264.474 57.1897 333.878C42.681 480.05 62.3864 658.707 71.0315 825.408C79.6062 990.75 74.242 1119.01 74.242 1119.01L60.8211 1118.54M60.8211 1118.54C60.8211 1118.54 66.3715 990.079 55.2697 824.859C44.5748 665.696 22.3275 475.929 37.2281 333.182C44.9069 259.62 70.0212 170.704 98.0082 107.987C125.724 45.8782 166.114 2.52932 166.114 2.52932" stroke="#BEB397" stroke-width="2" stroke-linecap="round" stroke-linejoin="round"/>
</svg>
